<svg width="50" height="50" viewBox="0 0 50 50" fill="none" xmlns="http://www.w3.org/2000/svg">
<path d="M0 12C0 5.37258 5.37258 0 12 0H38C44.6274 0 50 5.37258 50 12V38C50 44.6274 44.6274 50 38 50H12C5.37258 50 0 44.6274 0 38V12Z" fill="white"/>
<path d="M7.48047 41V38.5391L10.6641 37.9922V15.5898L7.48047 15.043V12.5625H15.8008L24.9609 34.1445H25.0781L33.9453 12.5625H42.5195V15.043L39.3359 15.5898V37.9922L42.5195 38.5391V41H32.3047V38.5391L35.6641 37.9922V17.8164L35.5664 17.7969L26.3281 39.9844H23.7695L14.2188 17.8359L14.1211 17.8555L14.2578 29.75V37.9922L17.6953 38.5391V41H7.48047Z" fill="#8391E6"/>
</svg>
